# xmcd CD database file
#
# Track frame offsets:
#	150
#	20148
#	31216
#	40605
#	57851
#	76881
#	95826
#	108236
#	116918
#	135696
#	150710
#	166078
#	185729
#	203729
#	227761
#
# Disc length: 3234 seconds
#
# Revision: 0
# Processed by: cddbd v1.5.1PL0 Copyright (c) Steve Scherf et al.
# Submitted via: CDex 1.60beta1
#
DISCID=c30ca00f
DTITLE=Various Artist - Instrumental Dreams: Flute
DYEAR=2004
DGENRE=New Age
TTITLE0=East Wind Associates - Wooden Ship
TTITLE1=Djivan Gasparyan - Ask Me No Questions
TTITLE2=J. Loman - N. Schulman - Gymnopedie #2
TTITLE3=Spotted Eagle - In Sunrise I Walk
TTITLE4=Richard Warner - Tao
TTITLE5=Joanie Madden - Women of Ireland
TTITLE6=Kay Gardner - Lydian Dreams
TTITLE7=Ensemble Villa Musica - Adagio from Flute Quartet in D
TTITLE8=Omar Faruk Tekbilek - Moment of Doubt
TTITLE9=Riley Lee - Melting Snow
TTITLE10=Una Ramos - Reflets de Soleil
TTITLE11=Steve Gorn - Rag Shivaranjani
TTITLE12=Tim Weisberg - Dion Blue
TTITLE13=R. Carlos Nakai - Catfish Blues
TTITLE14=Paul Horn - Prologue/Inside (The Taj Mahal)
EXTD=YEAR: 2004
EXTT0=
EXTT1=
EXTT2=
EXTT3=
EXTT4=
EXTT5=
EXTT6=
EXTT7=
EXTT8=
EXTT9=
EXTT10=
EXTT11=
EXTT12=
EXTT13=
EXTT14=
PLAYORDER=
